/* XPM */
static char *result[] = {
/* columns rows colors chars-per-pixel */
"16 16 19 1 ",
"  c #D13330",
". c #D63732",
"X c #DB3936",
"o c #E33D3A",
"O c #EB423F",
"+ c #E25957",
"@ c #EB6462",
"# c #E06968",
"$ c #2D85CC",
"% c #5C9FD6",
"& c #7EB3DC",
"* c #E88787",
"= c #E7BBBE",
"- c #BAD3E8",
"; c #E9CDD0",
": c #C5DAEA",
"> c #DDE7F0",
", c #E9EEF2",
"< c None",
/* pixels */
"<<<<<<<<<<<<<<<<",
"<<<<<<<<<<<<<<<<",
"<<..< <..< <..<<",
"<OooOXOooOXOooO<",
"<@@@@@@@@@@@@@@<",
"<,,,,,,,,,,,,,,<",
"<,,,;+=*#;+=&&,<",
"<,,,=+;#*=+;&&,<",
"<,::>->::>->::,<",
"<,%%-$-%%-$-%%,<",
"<,::>->::>->::,<",
"<,&&:%:&&:%:&&,<",
"<,&&:%:&&:%:&&,<",
"<,,,,,,,,,,,,,,<",
"<<<<<<<<<<<<<<<<",
"<<<<<<<<<<<<<<<<"
};
