/* XPM */
static char *result[] = {
/* columns rows colors chars-per-pixel */
"16 16 71 1 ",
"  c #2C2109",
". c #2D2109",
"X c #2F2109",
"o c #33250A",
"O c #32240B",
"+ c #35260A",
"@ c #36280A",
"# c #37280A",
"$ c #4E370F",
"% c #4F370F",
"& c #50380F",
"* c #503A0F",
"= c #513A0F",
"- c #533B11",
"; c #402F2F",
": c #6C4D14",
"> c #6F4F15",
", c #704F15",
"< c #715015",
"1 c #705A33",
"2 c #715B34",
"3 c #725C34",
"4 c #644949",
"5 c #65494A",
"6 c #746A59",
"7 c #756B5A",
"8 c #756D5B",
"9 c #626466",
"0 c #67696B",
"q c #8B6421",
"w c #8D6521",
"e c #8D6621",
"r c #8C6622",
"t c #8D6622",
"y c #8E6722",
"u c #80632D",
"i c #81632D",
"p c #81642D",
"a c #82642D",
"s c #82642E",
"d c #82652E",
"f c #86672D",
"g c #86672E",
"h c #87672E",
"j c #87682D",
"k c #85888B",
"l c #8D9092",
"z c #8E9193",
"x c #939699",
"c c #B5B7B9",
"v c #B6B8BA",
"b c #B7B9BB",
"n c #B7BABB",
"m c #B8BBBC",
"M c #BCBEBD",
"N c #BDBFBF",
"B c #BEC0C0",
"V c #BFC1C0",
"C c #C4C8CC",
"Z c #C5C9CD",
"A c #C6CACE",
"S c #C6CBCF",
"D c #C7CCCF",
"F c #CED3D6",
"G c #CFD4D7",
"H c #D3D8DB",
"J c #D9DEE2",
"K c #DADFE3",
"L c #DBE0E4",
"P c #E9EEF2",
"I c None",
/* pixels */
"IIIIIIIXOIIIIIII",
"IIII+<epdw,#IIII",
"III*g8nDDn7f-III",
"II&1VPPHHPPB2-II",
"I@gVlPPPPPPzNh#I",
"I<8PPPPPPLxPP7>I",
"IymPPP0KL9KPPvtI",
".uZGPPL;;JPPFAi.",
".uZGPPP54PPPFCa ",
"ItbPPPPPPPPPPceI",
"I<7PPPPPPPPPP6:I",
"I+hBlPPPPPPkMjoI",
"II=2BPPHHPPM3$II",
"III-h7cSSc6j%III",
"IIII#>rssq:oIIII",
"IIIIIII..IIIIIII"
};
