/* XPM */
static char *result[] = {
/* columns rows colors chars-per-pixel */
"16 16 6 1 ",
"  c #EF5858",
". c #EF5959",
"X c #EE5A5A",
"o c #EF5A5A",
"O c #F05959",
"+ c None",
/* pixels */
"++++++++++++++++",
"++++++++++++++++",
"+++++ .... +++++",
"+++..........+++",
"+o.O++++++++O.o+",
"..O++o....o++O..",
"++++...XX...++++",
"++o..++++++..o++",
"++++++O..O++++++",
"+++++..OO..+++++",
"+++++.++++.+++++",
"++++++++++++++++",
"+++++++..+++++++",
"+++++++..+++++++",
"++++++++++++++++",
"++++++++++++++++"
};
