/* XPM */
static char *_39ef96773214eace45bd46e90378c669yEnDRPiglT1iAfX[] = {
/* columns rows colors chars-per-pixel */
"16 16 52 1 ",
"  c None",
". c #1E495A",
"X c #2C5770",
"o c #2D5872",
"O c #56545B",
"+ c #6E5A55",
"@ c #625658",
"# c #5E695F",
"$ c #7B7955",
"% c #A1753E",
"& c #BB7E39",
"* c #FF6D3A",
"= c #FF6D3B",
"- c #895D4F",
"; c #937348",
": c #887F50",
"> c #A17643",
", c #B58B3E",
"< c #BA943E",
"1 c #FF901E",
"2 c #FE921F",
"3 c #FE931F",
"4 c #FF941F",
"5 c #CC9B37",
"6 c #DC9F30",
"7 c #EB9428",
"8 c #F39324",
"9 c #F99221",
"0 c #F99321",
"q c #FC9320",
"w c #FC9620",
"e c #DCA231",
"r c #DEA330",
"t c #E6A72D",
"y c #E5A62E",
"u c #EFA228",
"i c #EFAA29",
"p c #E9A82C",
"a c #F6A526",
"s c #FFA822",
"d c #FFAD23",
"f c #FAAF26",
"g c #F2AC29",
"h c #F3AC29",
"j c #FCB025",
"k c #FFB124",
"l c #8E814E",
"z c #90824D",
"x c #92834C",
"c c #9A8649",
"v c #B08A40",
"b c #B59240",
/* pixels */
"   1  1  1  1   ",
"   &> &;;& >%   ",
"  ooooooooooX.  ",
"1&ooooooooooo.-=",
" >oo5hhhhha8o.+ ",
"  oohkkkkksqo.O ",
"1&oohkethtu1o.-=",
" ;ooh<llclv1o.@ ",
" ;oohblxp$,1o.@ ",
"1,oohjrpke00o.-=",
"  oohkkkd40#o.O ",
" >oo7wqq10#oo.+ ",
"1&ooooooooooo.-=",
"  ooooooooooo.  ",
"   &> &;;, >%   ",
"   1  1  1  1   "
};
