/* XPM */
static char *_8f3cf845c0840d1b4e96db0bfd6d811j2xMjkxtb4QPOWjZ[] = {
/* columns rows colors chars-per-pixel */
"16 16 52 1 ",
"  c None",
". c #40596B",
"X c #455A6A",
"o c #415A6C",
"O c #445C6E",
"+ c #465E6F",
"@ c #545B69",
"# c #635D67",
"$ c #695E67",
"% c #765F66",
"& c #4D616A",
"* c #5B6A69",
"= c #4D6475",
"- c #4F6676",
"; c #546A7A",
": c #5A6F7F",
"> c #606D68",
", c #7C6065",
"< c #7A7D66",
"1 c #B7675F",
"2 c #8C6263",
"3 c #E06C5B",
"4 c #F46F59",
"5 c #F96F59",
"6 c #FF7058",
"7 c #838366",
"8 c #8B8865",
"9 c #B5A262",
"0 c #BBA661",
"q c #CDBA7E",
"w c #E9C35E",
"e c #EDC65D",
"r c #F0C85D",
"t c #F7CC5D",
"y c #FFD15C",
"u c #647785",
"i c #82919D",
"p c #8E9CA6",
"a c #909EA8",
"s c #A1ACB5",
"d c #ABB5BD",
"f c #FBDC90",
"g c #B3BCC2",
"h c #BEC5CA",
"j c #DCDACD",
"k c #D7DBDD",
"l c #DADEE0",
"z c #E0E2E4",
"x c #EAEBEC",
"c c #F3EFE5",
"v c #F1F1F1",
"b c gray95",
/* pixels */
"  ............  ",
"  Ou..:ii:..uO  ",
"  ...sbbbbs...  ",
"  ..pbbbbbbp..  ",
"  ..zbbllbbz..  ",
"  .=bbb;;bbb=.  ",
"  .oxbbddbbxo.  ",
"  ..gbcbbbbg..  ",
"  ..-jfbbbk-o.  ",
"  ..*wqhhaO...  ",
"  .>ey<.......  ",
"  .08t&245553@  ",
"  .7e9.166666$  ",
"  ......,,,,#.  ",
"  Ou........uO  ",
"  ............  "
};
