/* XPM */
static char *result[] = {
/* columns rows colors chars-per-pixel */
"16 16 7 1 ",
"  c #FF9712",
". c #FF9810",
"X c #FF9811",
"o c #FF9911",
"O c #FF9812",
"+ c #FF9912",
"@ c None",
/* pixels */
"@@@@@@@@@@@@@@@@",
"@@@@@@@@@@@@@X@@",
"@@@@@@@@@@@@@oO@",
"@@@          XXX",
"@X.          XXX",
"+@@@@@@@@@@@@oO@",
"X@@@@@@@@@@@@X@@",
"X@@@@@@@@@@@@@@@",
"@@@@@@@@@@@@@@@X",
"@@X@@@@@@@@@@@@X",
"@Oo@@@@@@@@@@@@O",
"XXX          .o@",
"XXX          @@@",
"@Oo@@@@@@@@@@@@@",
"@@X@@@@@@@@@@@@@",
"@@@@@@@@@@@@@@@@"
};
