/* XPM */
static char *_5e56a63e3df461de09c6bcc166b502eoZ65Rw6dOsVcvBs5[] = {
/* columns rows colors chars-per-pixel */
"16 16 63 1 ",
"  c None",
". c #291C05",
"X c #2E1E06",
"o c #2F2006",
"O c #342107",
"+ c #3A2108",
"@ c #3A2308",
"# c #3D220A",
"$ c #3F2708",
"% c #192C31",
"& c #313A34",
"* c #481F11",
"= c #44260B",
"- c #472C09",
"; c #482909",
": c #4B2B09",
"> c #4E2B0A",
", c #56350B",
"< c #5B310F",
"1 c #4B2011",
"2 c #4E2111",
"3 c #63380C",
"4 c #632A16",
"5 c #7D361C",
"6 c #69480F",
"7 c #72460E",
"8 c #78470F",
"9 c #7D470E",
"0 c #764015",
"q c #795311",
"w c #7A5311",
"e c #7B5311",
"r c #544826",
"t c #6E5521",
"y c #1F4A5C",
"u c #3F4C46",
"i c #204B5D",
"p c #234D5F",
"a c #265061",
"s c #285162",
"d c #295264",
"f c #2D5872",
"g c #46534B",
"h c #B46515",
"j c #B44C29",
"k c #8B6B25",
"l c #9F7421",
"z c #EF6636",
"x c #EF871C",
"c c #FF941F",
"v c #FFB124",
"b c #476C83",
"n c #476D83",
"m c #678598",
"M c #678699",
"N c #7691A2",
"B c #8DA3B2",
"V c #9EB0BD",
"C c #A1B3BF",
"Z c #AEBDC8",
"A c #B0BEC9",
"S c #B8C5CE",
"D c #BCC8D1",
/* pixels */
"    6qqqqqq8    ",
"  >Xvvvvvvvc+2  ",
" :x7vl&gu%kc0z2 ",
"   .vtfffyrc+   ",
"  3Ovtfffyrc#4  ",
" :h,vtfbbirc<j1 ",
"   ovtfSDsrc-   ",
"  9$vtfNBdrc=5  ",
"  9$vtfVZarc=5  ",
"   ovtfZCarc-   ",
" :h,vtfMMprc<j1 ",
"  3Ovtfffyrc#4  ",
"   .vtfffyrc+   ",
" :x7vl&gu%kc0z1 ",
"  >Xvvvvvvvc+2  ",
"    6qqwwww8    "
};
