/* XPM */
static char *f4adf8a6e936445695ed9c105292685ccpGemx44yvP9MWhO[] = {
/* columns rows colors chars-per-pixel */
"16 16 58 1 ",
"  c None",
". c #35495D",
"X c #35495E",
"o c #34495F",
"O c #364A5E",
"+ c #3A4D61",
"@ c #3C4F63",
"# c #3F5266",
"$ c #49575D",
"% c #57625D",
"& c #59625D",
"* c #70745D",
"= c #405366",
"- c #526476",
"; c #536577",
": c #5A6876",
"> c #5B6876",
", c #69747F",
"< c #6A747F",
"1 c #9C905D",
"2 c #AA985C",
"3 c #B4A65C",
"4 c #C3AA5C",
"5 c #E4C05C",
"6 c #F3D55B",
"7 c #82888E",
"8 c #82898E",
"9 c #8A8D8D",
"0 c #8C8E8F",
"q c #8D8F8F",
"w c #8D8F90",
"e c #8D9091",
"r c #8E9091",
"t c #8F9091",
"y c #8F9092",
"u c #909192",
"i c #909193",
"p c #919292",
"a c #919293",
"s c #959796",
"d c #959797",
"f c #94979A",
"g c #979899",
"h c #96999B",
"j c #989998",
"k c #989999",
"l c #999B9B",
"z c #9A9C9C",
"x c #9B9C9C",
"c c #9B9D9C",
"v c #9C9E9D",
"b c #9D9E9D",
"n c gray62",
"m c #9EA09F",
"M c #A0A2A1",
"N c #A3A4A3",
"B c #A4A5A4",
"V c #A5A5A4",
/* pixels */
"  O=*66645&.=.  ",
"  O-&33312$o-.  ",
"  OOooOOo.o...  ",
"  ..ooOO.o.o..  ",
"  .:fhhhhlhh>O  ",
"  O7NNVVVVNV7O  ",
"  O7NNVVVVNN7O  ",
"  O7jtMppxts7O  ",
"  O7pxn0lfnp7.  ",
"  .7x0nl9gnp7O  ",
"  O7p0n00l0p7O  ",
"  O7VNVVNVNN7O  ",
"  O7VVVVVVVV7.  ",
"  O,VNVVVVVM,O  ",
"  O-O=@@@@@@-O  ",
"  O#ooooOOoO#O  "
};
